<mxfile host="app.diagrams.net" modified="2020-09-23T02:58:09.512Z" agent="5.0 (Windows NT 10.0; WOW64) AppleWebKit/537.36 (KHTML, like Gecko) Chrome/78.0.3904.108 Safari/537.36" etag="SKHYhA-ezte56s5LxvC5" version="13.6.9" type="github">
  <diagram id="EcwfBps_Wt6sAbgpc9Hz" name="Page-1">
    <mxGraphModel dx="1422" dy="726" grid="1" gridSize="10" guides="1" tooltips="1" connect="1" arrows="1" fold="1" page="1" pageScale="1" pageWidth="827" pageHeight="1169" math="0" shadow="0">
      <root>
        <mxCell id="0" />
        <mxCell id="1" parent="0" />
        <mxCell id="CijfTk94sdnZkvBbVIQh-2" value="Java系统" style="rounded=1;whiteSpace=wrap;html=1;fillColor=#ffe6cc;strokeColor=#d79b00;" vertex="1" parent="1">
          <mxGeometry x="130" y="320" width="200" height="120" as="geometry" />
        </mxCell>
        <mxCell id="CijfTk94sdnZkvBbVIQh-4" value="数据库" style="shape=datastore;whiteSpace=wrap;html=1;fillColor=#f8cecc;strokeColor=#b85450;" vertex="1" parent="1">
          <mxGeometry x="640" y="320" width="90" height="120" as="geometry" />
        </mxCell>
        <mxCell id="CijfTk94sdnZkvBbVIQh-7" style="edgeStyle=orthogonalEdgeStyle;rounded=0;orthogonalLoop=1;jettySize=auto;html=1;entryX=0;entryY=0.5;entryDx=0;entryDy=0;" edge="1" parent="1" source="CijfTk94sdnZkvBbVIQh-6" target="CijfTk94sdnZkvBbVIQh-4">
          <mxGeometry relative="1" as="geometry">
            <mxPoint x="630" y="390" as="targetPoint" />
          </mxGeometry>
        </mxCell>
        <mxCell id="CijfTk94sdnZkvBbVIQh-8" value="建立网络连接" style="edgeLabel;html=1;align=center;verticalAlign=middle;resizable=0;points=[];fontSize=20;" vertex="1" connectable="0" parent="CijfTk94sdnZkvBbVIQh-7">
          <mxGeometry x="-0.1167" y="-3" relative="1" as="geometry">
            <mxPoint y="-1" as="offset" />
          </mxGeometry>
        </mxCell>
        <mxCell id="CijfTk94sdnZkvBbVIQh-6" value="MySQL驱动" style="rounded=1;whiteSpace=wrap;html=1;fillColor=#dae8fc;strokeColor=#6c8ebf;" vertex="1" parent="1">
          <mxGeometry x="280" y="350" width="120" height="60" as="geometry" />
        </mxCell>
        <mxCell id="CijfTk94sdnZkvBbVIQh-9" value="MySQL驱动的作用" style="text;html=1;resizable=0;autosize=1;align=center;verticalAlign=bottom;points=[];fillColor=none;strokeColor=none;rounded=0;fontSize=31;" vertex="1" parent="1">
          <mxGeometry x="130" y="210" width="270" height="40" as="geometry" />
        </mxCell>
        <mxCell id="CijfTk94sdnZkvBbVIQh-12" value="&lt;font style=&quot;font-size: 26px&quot;&gt;跟数据库建立连接后才能执行SQL语句&lt;/font&gt;" style="text;html=1;resizable=0;autosize=1;align=center;verticalAlign=middle;points=[];fillColor=none;strokeColor=none;rounded=0;fontSize=20;fontColor=none;" vertex="1" parent="1">
          <mxGeometry x="117" y="510" width="460" height="30" as="geometry" />
        </mxCell>
        <mxCell id="CijfTk94sdnZkvBbVIQh-13" value="Java系统" style="rounded=1;whiteSpace=wrap;html=1;fillColor=#ffe6cc;strokeColor=#d79b00;" vertex="1" parent="1">
          <mxGeometry x="130" y="620" width="200" height="120" as="geometry" />
        </mxCell>
        <mxCell id="CijfTk94sdnZkvBbVIQh-14" value="数据库" style="shape=datastore;whiteSpace=wrap;html=1;fillColor=#f8cecc;strokeColor=#b85450;" vertex="1" parent="1">
          <mxGeometry x="640" y="620" width="90" height="120" as="geometry" />
        </mxCell>
        <mxCell id="CijfTk94sdnZkvBbVIQh-15" style="edgeStyle=orthogonalEdgeStyle;rounded=0;orthogonalLoop=1;jettySize=auto;html=1;entryX=0;entryY=0.5;entryDx=0;entryDy=0;" edge="1" parent="1" source="CijfTk94sdnZkvBbVIQh-17" target="CijfTk94sdnZkvBbVIQh-14">
          <mxGeometry relative="1" as="geometry">
            <mxPoint x="630" y="690" as="targetPoint" />
          </mxGeometry>
        </mxCell>
        <mxCell id="CijfTk94sdnZkvBbVIQh-16" value="建立网络连接" style="edgeLabel;html=1;align=center;verticalAlign=middle;resizable=0;points=[];fontSize=20;" vertex="1" connectable="0" parent="CijfTk94sdnZkvBbVIQh-15">
          <mxGeometry x="-0.1167" y="-3" relative="1" as="geometry">
            <mxPoint y="-1" as="offset" />
          </mxGeometry>
        </mxCell>
        <mxCell id="CijfTk94sdnZkvBbVIQh-17" value="MySQL驱动" style="rounded=1;whiteSpace=wrap;html=1;fillColor=#dae8fc;strokeColor=#6c8ebf;" vertex="1" parent="1">
          <mxGeometry x="280" y="650" width="120" height="60" as="geometry" />
        </mxCell>
        <mxCell id="CijfTk94sdnZkvBbVIQh-19" style="edgeStyle=orthogonalEdgeStyle;rounded=0;orthogonalLoop=1;jettySize=auto;html=1;exitX=0.5;exitY=1;exitDx=0;exitDy=0;entryX=0.5;entryY=1;entryDx=0;entryDy=0;fontSize=20;fontColor=none;" edge="1" parent="1" source="CijfTk94sdnZkvBbVIQh-18" target="CijfTk94sdnZkvBbVIQh-17">
          <mxGeometry relative="1" as="geometry" />
        </mxCell>
        <mxCell id="CijfTk94sdnZkvBbVIQh-20" value="执行SQL语句" style="edgeLabel;html=1;align=center;verticalAlign=middle;resizable=0;points=[];fontSize=20;fontColor=none;" vertex="1" connectable="0" parent="CijfTk94sdnZkvBbVIQh-19">
          <mxGeometry x="0.1931" y="-1" relative="1" as="geometry">
            <mxPoint as="offset" />
          </mxGeometry>
        </mxCell>
        <mxCell id="CijfTk94sdnZkvBbVIQh-18" value="代码逻辑" style="rounded=1;whiteSpace=wrap;html=1;fontSize=20;fillColor=#d5e8d4;strokeColor=#82b366;" vertex="1" parent="1">
          <mxGeometry x="90" y="710" width="120" height="60" as="geometry" />
        </mxCell>
        <mxCell id="CijfTk94sdnZkvBbVIQh-21" value="&lt;font style=&quot;font-size: 25px&quot;&gt;数据库连接池是用来干什么的？&lt;/font&gt;" style="text;html=1;resizable=0;autosize=1;align=center;verticalAlign=middle;points=[];fillColor=none;strokeColor=none;rounded=0;fontSize=20;fontColor=none;" vertex="1" parent="1">
          <mxGeometry x="117" y="880" width="370" height="30" as="geometry" />
        </mxCell>
        <mxCell id="CijfTk94sdnZkvBbVIQh-22" value="&lt;pre&gt;&lt;br&gt;&lt;/pre&gt;" style="rounded=1;whiteSpace=wrap;html=1;fillColor=#ffe6cc;strokeColor=#d79b00;align=left;" vertex="1" parent="1">
          <mxGeometry x="271" y="930" width="200" height="250" as="geometry" />
        </mxCell>
        <mxCell id="CijfTk94sdnZkvBbVIQh-23" value="数据库" style="shape=datastore;whiteSpace=wrap;html=1;fillColor=#f8cecc;strokeColor=#b85450;" vertex="1" parent="1">
          <mxGeometry x="781" y="1060" width="90" height="120" as="geometry" />
        </mxCell>
        <mxCell id="CijfTk94sdnZkvBbVIQh-24" style="edgeStyle=orthogonalEdgeStyle;rounded=0;orthogonalLoop=1;jettySize=auto;html=1;entryX=0;entryY=0.5;entryDx=0;entryDy=0;" edge="1" parent="1" source="CijfTk94sdnZkvBbVIQh-26" target="CijfTk94sdnZkvBbVIQh-23">
          <mxGeometry relative="1" as="geometry">
            <mxPoint x="771" y="1130" as="targetPoint" />
          </mxGeometry>
        </mxCell>
        <mxCell id="CijfTk94sdnZkvBbVIQh-25" value="建立网络连接" style="edgeLabel;html=1;align=center;verticalAlign=middle;resizable=0;points=[];fontSize=20;" vertex="1" connectable="0" parent="CijfTk94sdnZkvBbVIQh-24">
          <mxGeometry x="-0.1167" y="-3" relative="1" as="geometry">
            <mxPoint y="-1" as="offset" />
          </mxGeometry>
        </mxCell>
        <mxCell id="CijfTk94sdnZkvBbVIQh-26" value="MySQL驱动" style="rounded=1;whiteSpace=wrap;html=1;fillColor=#dae8fc;strokeColor=#6c8ebf;" vertex="1" parent="1">
          <mxGeometry x="421" y="1090" width="120" height="60" as="geometry" />
        </mxCell>
        <mxCell id="CijfTk94sdnZkvBbVIQh-27" style="edgeStyle=orthogonalEdgeStyle;rounded=0;orthogonalLoop=1;jettySize=auto;html=1;exitX=0.5;exitY=1;exitDx=0;exitDy=0;entryX=0.5;entryY=1;entryDx=0;entryDy=0;fontSize=20;fontColor=none;" edge="1" parent="1" source="CijfTk94sdnZkvBbVIQh-29" target="CijfTk94sdnZkvBbVIQh-26">
          <mxGeometry relative="1" as="geometry" />
        </mxCell>
        <mxCell id="CijfTk94sdnZkvBbVIQh-28" value="执行SQL语句" style="edgeLabel;html=1;align=center;verticalAlign=middle;resizable=0;points=[];fontSize=20;fontColor=none;" vertex="1" connectable="0" parent="CijfTk94sdnZkvBbVIQh-27">
          <mxGeometry x="0.1931" y="-1" relative="1" as="geometry">
            <mxPoint as="offset" />
          </mxGeometry>
        </mxCell>
        <mxCell id="CijfTk94sdnZkvBbVIQh-29" value="代码逻辑" style="rounded=1;whiteSpace=wrap;html=1;fontSize=20;fillColor=#d5e8d4;strokeColor=#82b366;" vertex="1" parent="1">
          <mxGeometry x="231" y="1150" width="120" height="60" as="geometry" />
        </mxCell>
        <mxCell id="CijfTk94sdnZkvBbVIQh-30" value="Tomcat" style="text;html=1;resizable=0;autosize=1;align=center;verticalAlign=middle;points=[];fillColor=none;strokeColor=none;rounded=0;fontSize=20;fontColor=none;" vertex="1" parent="1">
          <mxGeometry x="327" y="950" width="80" height="30" as="geometry" />
        </mxCell>
        <mxCell id="CijfTk94sdnZkvBbVIQh-31" value="线程" style="ellipse;whiteSpace=wrap;html=1;fontSize=20;fillColor=#fff2cc;strokeColor=#d6b656;" vertex="1" parent="1">
          <mxGeometry x="287" y="990" width="80" height="60" as="geometry" />
        </mxCell>
        <mxCell id="CijfTk94sdnZkvBbVIQh-32" value="线程" style="ellipse;whiteSpace=wrap;html=1;fontSize=20;fillColor=#fff2cc;strokeColor=#d6b656;" vertex="1" parent="1">
          <mxGeometry x="287" y="1070" width="80" height="60" as="geometry" />
        </mxCell>
        <mxCell id="CijfTk94sdnZkvBbVIQh-35" style="edgeStyle=orthogonalEdgeStyle;rounded=0;orthogonalLoop=1;jettySize=auto;html=1;exitX=0.5;exitY=0.5;exitDx=0;exitDy=0;exitPerimeter=0;entryX=0;entryY=0.5;entryDx=0;entryDy=0;fontSize=20;fontColor=none;" edge="1" parent="1" source="CijfTk94sdnZkvBbVIQh-33" target="CijfTk94sdnZkvBbVIQh-31">
          <mxGeometry relative="1" as="geometry" />
        </mxCell>
        <mxCell id="CijfTk94sdnZkvBbVIQh-36" value="发送请求" style="edgeLabel;html=1;align=center;verticalAlign=middle;resizable=0;points=[];fontSize=20;fontColor=none;" vertex="1" connectable="0" parent="CijfTk94sdnZkvBbVIQh-35">
          <mxGeometry x="0.376" y="3" relative="1" as="geometry">
            <mxPoint as="offset" />
          </mxGeometry>
        </mxCell>
        <mxCell id="CijfTk94sdnZkvBbVIQh-33" value="用户" style="shape=umlActor;verticalLabelPosition=bottom;verticalAlign=top;html=1;outlineConnect=0;fontSize=20;fontColor=none;" vertex="1" parent="1">
          <mxGeometry x="117" y="970" width="30" height="60" as="geometry" />
        </mxCell>
        <mxCell id="CijfTk94sdnZkvBbVIQh-38" style="edgeStyle=orthogonalEdgeStyle;rounded=0;orthogonalLoop=1;jettySize=auto;html=1;exitX=0.5;exitY=0.5;exitDx=0;exitDy=0;exitPerimeter=0;entryX=0;entryY=0.5;entryDx=0;entryDy=0;fontSize=20;fontColor=none;" edge="1" parent="1" source="CijfTk94sdnZkvBbVIQh-37" target="CijfTk94sdnZkvBbVIQh-32">
          <mxGeometry relative="1" as="geometry" />
        </mxCell>
        <mxCell id="CijfTk94sdnZkvBbVIQh-39" value="发送请求" style="edgeLabel;html=1;align=center;verticalAlign=middle;resizable=0;points=[];fontSize=20;fontColor=none;" vertex="1" connectable="0" parent="CijfTk94sdnZkvBbVIQh-38">
          <mxGeometry x="0.008" y="-5" relative="1" as="geometry">
            <mxPoint as="offset" />
          </mxGeometry>
        </mxCell>
        <mxCell id="CijfTk94sdnZkvBbVIQh-37" value="用户" style="shape=umlActor;verticalLabelPosition=bottom;verticalAlign=top;html=1;outlineConnect=0;fontSize=20;fontColor=none;" vertex="1" parent="1">
          <mxGeometry x="117" y="1100" width="30" height="60" as="geometry" />
        </mxCell>
        <mxCell id="CijfTk94sdnZkvBbVIQh-40" value="&lt;font color=&quot;#ff6666&quot; style=&quot;font-size: 26px&quot;&gt;多线程并发处理请求&lt;/font&gt;" style="text;html=1;resizable=0;autosize=1;align=center;verticalAlign=middle;points=[];fillColor=none;strokeColor=none;rounded=0;fontSize=20;fontColor=none;" vertex="1" parent="1">
          <mxGeometry x="7" y="1060" width="250" height="30" as="geometry" />
        </mxCell>
        <mxCell id="CijfTk94sdnZkvBbVIQh-41" value="&lt;div style=&quot;font-size: 25px&quot;&gt;&lt;font style=&quot;font-size: 25px&quot;&gt;如果Tomcat的多个线程并发处理多个请求的时候，&amp;nbsp;都要去抢夺一个连接去访问数据库，&lt;/font&gt;&lt;span style=&quot;text-align: left&quot;&gt;那效率一定很低&lt;/span&gt;&lt;/div&gt;" style="text;html=1;resizable=0;autosize=1;align=center;verticalAlign=middle;points=[];fillColor=none;strokeColor=none;rounded=0;fontSize=20;fontColor=none;" vertex="1" parent="1">
          <mxGeometry x="100" y="1340" width="1150" height="30" as="geometry" />
        </mxCell>
        <mxCell id="CijfTk94sdnZkvBbVIQh-42" value="&lt;p style=&quot;font-size: 25px&quot;&gt;&lt;font face=&quot;Tahoma&quot;&gt;&lt;font style=&quot;font-size: 25px&quot;&gt;一般我们必须要使用一个数据库连接池，也就是说在一个池子里维持多个数据库连接，让多个线程使用里面的不同的数据库连接去&lt;br&gt;&lt;/font&gt;&lt;font style=&quot;font-size: 25px&quot;&gt;执行SQL语句，然后执行完SQL语句之后，不要销毁这个数据库连接，而是把连接放回池子里，后续还可以继续使用。&lt;br&gt;&lt;/font&gt;&lt;font style=&quot;font-size: 25px&quot;&gt;基于这样的一个数据库连接池的机制，就可以解决多个线程并发的使用多个数据库连接去执行SQL语句的问题。&lt;/font&gt;&lt;/font&gt;&lt;/p&gt;&lt;p style=&quot;font-size: 25px&quot;&gt;&lt;font style=&quot;font-family: &amp;#34;tahoma&amp;#34;&quot;&gt;而且还避免了数据库连&lt;/font&gt;&lt;font style=&quot;font-family: &amp;#34;tahoma&amp;#34;&quot;&gt;接使用完之后就销毁的问题，我们看下图的说明&lt;/font&gt;&lt;/p&gt;" style="text;html=1;resizable=0;autosize=1;align=left;verticalAlign=middle;points=[];fillColor=none;strokeColor=none;rounded=0;fontSize=20;fontColor=none;" vertex="1" parent="1">
          <mxGeometry x="100" y="1410" width="1440" height="180" as="geometry" />
        </mxCell>
        <mxCell id="CijfTk94sdnZkvBbVIQh-43" value="&lt;pre&gt;&lt;br&gt;&lt;/pre&gt;" style="rounded=1;whiteSpace=wrap;html=1;fillColor=#ffe6cc;strokeColor=#d79b00;align=left;" vertex="1" parent="1">
          <mxGeometry x="394" y="1640" width="200" height="290" as="geometry" />
        </mxCell>
        <mxCell id="CijfTk94sdnZkvBbVIQh-44" value="数据库" style="shape=datastore;whiteSpace=wrap;html=1;fillColor=#f8cecc;strokeColor=#b85450;" vertex="1" parent="1">
          <mxGeometry x="904" y="1670" width="156" height="230" as="geometry" />
        </mxCell>
        <mxCell id="CijfTk94sdnZkvBbVIQh-47" value="" style="rounded=1;whiteSpace=wrap;html=1;fillColor=#dae8fc;strokeColor=#6c8ebf;" vertex="1" parent="1">
          <mxGeometry x="560" y="1730" width="120" height="150" as="geometry" />
        </mxCell>
        <mxCell id="CijfTk94sdnZkvBbVIQh-48" style="edgeStyle=orthogonalEdgeStyle;rounded=0;orthogonalLoop=1;jettySize=auto;html=1;exitX=1;exitY=0.5;exitDx=0;exitDy=0;entryX=0.5;entryY=1;entryDx=0;entryDy=0;fontSize=20;fontColor=none;" edge="1" parent="1" source="CijfTk94sdnZkvBbVIQh-53" target="CijfTk94sdnZkvBbVIQh-47">
          <mxGeometry relative="1" as="geometry">
            <mxPoint x="414" y="1920" as="sourcePoint" />
            <Array as="points">
              <mxPoint x="520" y="1810" />
              <mxPoint x="520" y="1900" />
              <mxPoint x="620" y="1900" />
            </Array>
          </mxGeometry>
        </mxCell>
        <mxCell id="CijfTk94sdnZkvBbVIQh-49" value="执行SQL语句" style="edgeLabel;html=1;align=center;verticalAlign=middle;resizable=0;points=[];fontSize=20;fontColor=none;" vertex="1" connectable="0" parent="CijfTk94sdnZkvBbVIQh-48">
          <mxGeometry x="0.1931" y="-1" relative="1" as="geometry">
            <mxPoint as="offset" />
          </mxGeometry>
        </mxCell>
        <mxCell id="CijfTk94sdnZkvBbVIQh-51" value="Tomcat" style="text;html=1;resizable=0;autosize=1;align=center;verticalAlign=middle;points=[];fillColor=none;strokeColor=none;rounded=0;fontSize=20;fontColor=none;" vertex="1" parent="1">
          <mxGeometry x="441" y="1650" width="80" height="30" as="geometry" />
        </mxCell>
        <mxCell id="CijfTk94sdnZkvBbVIQh-61" style="edgeStyle=orthogonalEdgeStyle;rounded=0;orthogonalLoop=1;jettySize=auto;html=1;exitX=1;exitY=0.5;exitDx=0;exitDy=0;fontSize=20;fontColor=none;entryX=0.5;entryY=0;entryDx=0;entryDy=0;" edge="1" parent="1" source="CijfTk94sdnZkvBbVIQh-52" target="CijfTk94sdnZkvBbVIQh-47">
          <mxGeometry relative="1" as="geometry">
            <mxPoint x="630" y="1700" as="targetPoint" />
            <Array as="points">
              <mxPoint x="517" y="1730" />
              <mxPoint x="517" y="1700" />
              <mxPoint x="620" y="1700" />
            </Array>
          </mxGeometry>
        </mxCell>
        <mxCell id="CijfTk94sdnZkvBbVIQh-63" value="执行SQL语句" style="edgeLabel;html=1;align=center;verticalAlign=middle;resizable=0;points=[];fontSize=20;fontColor=none;" vertex="1" connectable="0" parent="CijfTk94sdnZkvBbVIQh-61">
          <mxGeometry x="0.0211" relative="1" as="geometry">
            <mxPoint as="offset" />
          </mxGeometry>
        </mxCell>
        <mxCell id="CijfTk94sdnZkvBbVIQh-52" value="线程" style="ellipse;whiteSpace=wrap;html=1;fontSize=20;fillColor=#fff2cc;strokeColor=#d6b656;" vertex="1" parent="1">
          <mxGeometry x="410" y="1700" width="80" height="60" as="geometry" />
        </mxCell>
        <mxCell id="CijfTk94sdnZkvBbVIQh-53" value="线程" style="ellipse;whiteSpace=wrap;html=1;fontSize=20;fillColor=#fff2cc;strokeColor=#d6b656;" vertex="1" parent="1">
          <mxGeometry x="410" y="1780" width="80" height="60" as="geometry" />
        </mxCell>
        <mxCell id="CijfTk94sdnZkvBbVIQh-54" style="edgeStyle=orthogonalEdgeStyle;rounded=0;orthogonalLoop=1;jettySize=auto;html=1;exitX=0.5;exitY=0.5;exitDx=0;exitDy=0;exitPerimeter=0;entryX=0;entryY=0.5;entryDx=0;entryDy=0;fontSize=20;fontColor=none;" edge="1" parent="1" source="CijfTk94sdnZkvBbVIQh-56" target="CijfTk94sdnZkvBbVIQh-52">
          <mxGeometry relative="1" as="geometry" />
        </mxCell>
        <mxCell id="CijfTk94sdnZkvBbVIQh-55" value="发送请求" style="edgeLabel;html=1;align=center;verticalAlign=middle;resizable=0;points=[];fontSize=20;fontColor=none;" vertex="1" connectable="0" parent="CijfTk94sdnZkvBbVIQh-54">
          <mxGeometry x="0.376" y="3" relative="1" as="geometry">
            <mxPoint as="offset" />
          </mxGeometry>
        </mxCell>
        <mxCell id="CijfTk94sdnZkvBbVIQh-56" value="用户" style="shape=umlActor;verticalLabelPosition=bottom;verticalAlign=top;html=1;outlineConnect=0;fontSize=20;fontColor=none;" vertex="1" parent="1">
          <mxGeometry x="240" y="1680" width="30" height="60" as="geometry" />
        </mxCell>
        <mxCell id="CijfTk94sdnZkvBbVIQh-57" style="edgeStyle=orthogonalEdgeStyle;rounded=0;orthogonalLoop=1;jettySize=auto;html=1;exitX=0.5;exitY=0.5;exitDx=0;exitDy=0;exitPerimeter=0;entryX=0;entryY=0.5;entryDx=0;entryDy=0;fontSize=20;fontColor=none;" edge="1" parent="1" source="CijfTk94sdnZkvBbVIQh-59" target="CijfTk94sdnZkvBbVIQh-53">
          <mxGeometry relative="1" as="geometry" />
        </mxCell>
        <mxCell id="CijfTk94sdnZkvBbVIQh-58" value="发送请求" style="edgeLabel;html=1;align=center;verticalAlign=middle;resizable=0;points=[];fontSize=20;fontColor=none;" vertex="1" connectable="0" parent="CijfTk94sdnZkvBbVIQh-57">
          <mxGeometry x="0.008" y="-5" relative="1" as="geometry">
            <mxPoint as="offset" />
          </mxGeometry>
        </mxCell>
        <mxCell id="CijfTk94sdnZkvBbVIQh-59" value="用户" style="shape=umlActor;verticalLabelPosition=bottom;verticalAlign=top;html=1;outlineConnect=0;fontSize=20;fontColor=none;" vertex="1" parent="1">
          <mxGeometry x="240" y="1810" width="30" height="60" as="geometry" />
        </mxCell>
        <mxCell id="CijfTk94sdnZkvBbVIQh-60" value="&lt;font color=&quot;#ff6666&quot; style=&quot;font-size: 26px&quot;&gt;多线程并发处理请求&lt;/font&gt;" style="text;html=1;resizable=0;autosize=1;align=center;verticalAlign=middle;points=[];fillColor=none;strokeColor=none;rounded=0;fontSize=20;fontColor=none;" vertex="1" parent="1">
          <mxGeometry x="130" y="1770" width="250" height="30" as="geometry" />
        </mxCell>
        <mxCell id="CijfTk94sdnZkvBbVIQh-64" value="&lt;font style=&quot;font-size: 15px&quot;&gt;数据库&lt;br&gt;连接池&lt;/font&gt;" style="text;html=1;resizable=0;autosize=1;align=center;verticalAlign=middle;points=[];fillColor=none;strokeColor=none;rounded=0;fontSize=20;fontColor=none;" vertex="1" parent="1">
          <mxGeometry x="590" y="1735" width="60" height="60" as="geometry" />
        </mxCell>
        <mxCell id="CijfTk94sdnZkvBbVIQh-71" style="edgeStyle=orthogonalEdgeStyle;rounded=0;orthogonalLoop=1;jettySize=auto;html=1;exitX=1;exitY=0.5;exitDx=0;exitDy=0;entryX=0;entryY=0.7;entryDx=0;entryDy=0;fontSize=20;fontColor=none;" edge="1" parent="1" source="CijfTk94sdnZkvBbVIQh-65" target="CijfTk94sdnZkvBbVIQh-44">
          <mxGeometry relative="1" as="geometry" />
        </mxCell>
        <mxCell id="CijfTk94sdnZkvBbVIQh-73" value="执行SQL语句" style="edgeLabel;html=1;align=center;verticalAlign=middle;resizable=0;points=[];fontSize=20;fontColor=none;" vertex="1" connectable="0" parent="CijfTk94sdnZkvBbVIQh-71">
          <mxGeometry x="-0.2158" y="4" relative="1" as="geometry">
            <mxPoint as="offset" />
          </mxGeometry>
        </mxCell>
        <mxCell id="CijfTk94sdnZkvBbVIQh-65" value="连接" style="rounded=1;whiteSpace=wrap;html=1;fontSize=20;fontColor=none;" vertex="1" parent="1">
          <mxGeometry x="594" y="1840" width="56" height="30" as="geometry" />
        </mxCell>
        <mxCell id="CijfTk94sdnZkvBbVIQh-67" style="edgeStyle=orthogonalEdgeStyle;rounded=0;orthogonalLoop=1;jettySize=auto;html=1;exitX=1;exitY=0.5;exitDx=0;exitDy=0;fontSize=20;fontColor=none;entryX=0;entryY=0.5;entryDx=0;entryDy=0;" edge="1" parent="1" source="CijfTk94sdnZkvBbVIQh-66" target="CijfTk94sdnZkvBbVIQh-44">
          <mxGeometry relative="1" as="geometry" />
        </mxCell>
        <mxCell id="CijfTk94sdnZkvBbVIQh-72" value="执行SQL语句" style="edgeLabel;html=1;align=center;verticalAlign=middle;resizable=0;points=[];fontSize=20;fontColor=none;" vertex="1" connectable="0" parent="CijfTk94sdnZkvBbVIQh-67">
          <mxGeometry x="-0.233" y="-4" relative="1" as="geometry">
            <mxPoint as="offset" />
          </mxGeometry>
        </mxCell>
        <mxCell id="CijfTk94sdnZkvBbVIQh-66" value="连接" style="rounded=1;whiteSpace=wrap;html=1;fontSize=20;fontColor=none;" vertex="1" parent="1">
          <mxGeometry x="594" y="1795" width="56" height="30" as="geometry" />
        </mxCell>
        <mxCell id="CijfTk94sdnZkvBbVIQh-74" value="&lt;pre&gt;&lt;br&gt;&lt;/pre&gt;" style="rounded=1;whiteSpace=wrap;html=1;fillColor=#ffe6cc;strokeColor=#d79b00;align=left;" vertex="1" parent="1">
          <mxGeometry x="411" y="2130" width="200" height="290" as="geometry" />
        </mxCell>
        <mxCell id="CijfTk94sdnZkvBbVIQh-75" value="数据库" style="shape=datastore;whiteSpace=wrap;html=1;fillColor=#f8cecc;strokeColor=#b85450;" vertex="1" parent="1">
          <mxGeometry x="960" y="2120" width="219" height="290" as="geometry" />
        </mxCell>
        <mxCell id="CijfTk94sdnZkvBbVIQh-76" value="" style="rounded=1;whiteSpace=wrap;html=1;fillColor=#dae8fc;strokeColor=#6c8ebf;" vertex="1" parent="1">
          <mxGeometry x="577" y="2220" width="120" height="150" as="geometry" />
        </mxCell>
        <mxCell id="CijfTk94sdnZkvBbVIQh-77" style="edgeStyle=orthogonalEdgeStyle;rounded=0;orthogonalLoop=1;jettySize=auto;html=1;exitX=1;exitY=0.5;exitDx=0;exitDy=0;entryX=0.5;entryY=1;entryDx=0;entryDy=0;fontSize=20;fontColor=none;" edge="1" parent="1" source="CijfTk94sdnZkvBbVIQh-83" target="CijfTk94sdnZkvBbVIQh-76">
          <mxGeometry relative="1" as="geometry">
            <mxPoint x="431" y="2410" as="sourcePoint" />
            <Array as="points">
              <mxPoint x="537" y="2300" />
              <mxPoint x="537" y="2390" />
              <mxPoint x="637" y="2390" />
            </Array>
          </mxGeometry>
        </mxCell>
        <mxCell id="CijfTk94sdnZkvBbVIQh-78" value="执行SQL语句" style="edgeLabel;html=1;align=center;verticalAlign=middle;resizable=0;points=[];fontSize=20;fontColor=none;" vertex="1" connectable="0" parent="CijfTk94sdnZkvBbVIQh-77">
          <mxGeometry x="0.1931" y="-1" relative="1" as="geometry">
            <mxPoint as="offset" />
          </mxGeometry>
        </mxCell>
        <mxCell id="CijfTk94sdnZkvBbVIQh-79" value="Tomcat" style="text;html=1;resizable=0;autosize=1;align=center;verticalAlign=middle;points=[];fillColor=none;strokeColor=none;rounded=0;fontSize=20;fontColor=none;" vertex="1" parent="1">
          <mxGeometry x="458" y="2140" width="80" height="30" as="geometry" />
        </mxCell>
        <mxCell id="CijfTk94sdnZkvBbVIQh-80" style="edgeStyle=orthogonalEdgeStyle;rounded=0;orthogonalLoop=1;jettySize=auto;html=1;exitX=1;exitY=0.5;exitDx=0;exitDy=0;fontSize=20;fontColor=none;entryX=0.5;entryY=0;entryDx=0;entryDy=0;" edge="1" parent="1" source="CijfTk94sdnZkvBbVIQh-82" target="CijfTk94sdnZkvBbVIQh-76">
          <mxGeometry relative="1" as="geometry">
            <mxPoint x="647" y="2190" as="targetPoint" />
            <Array as="points">
              <mxPoint x="534" y="2220" />
              <mxPoint x="534" y="2190" />
              <mxPoint x="637" y="2190" />
            </Array>
          </mxGeometry>
        </mxCell>
        <mxCell id="CijfTk94sdnZkvBbVIQh-81" value="执行SQL语句" style="edgeLabel;html=1;align=center;verticalAlign=middle;resizable=0;points=[];fontSize=20;fontColor=none;" vertex="1" connectable="0" parent="CijfTk94sdnZkvBbVIQh-80">
          <mxGeometry x="0.0211" relative="1" as="geometry">
            <mxPoint as="offset" />
          </mxGeometry>
        </mxCell>
        <mxCell id="CijfTk94sdnZkvBbVIQh-82" value="线程" style="ellipse;whiteSpace=wrap;html=1;fontSize=20;fillColor=#fff2cc;strokeColor=#d6b656;" vertex="1" parent="1">
          <mxGeometry x="427" y="2190" width="80" height="60" as="geometry" />
        </mxCell>
        <mxCell id="CijfTk94sdnZkvBbVIQh-83" value="线程" style="ellipse;whiteSpace=wrap;html=1;fontSize=20;fillColor=#fff2cc;strokeColor=#d6b656;" vertex="1" parent="1">
          <mxGeometry x="427" y="2270" width="80" height="60" as="geometry" />
        </mxCell>
        <mxCell id="CijfTk94sdnZkvBbVIQh-84" style="edgeStyle=orthogonalEdgeStyle;rounded=0;orthogonalLoop=1;jettySize=auto;html=1;exitX=0.5;exitY=0.5;exitDx=0;exitDy=0;exitPerimeter=0;entryX=0;entryY=0.5;entryDx=0;entryDy=0;fontSize=20;fontColor=none;" edge="1" parent="1" source="CijfTk94sdnZkvBbVIQh-86" target="CijfTk94sdnZkvBbVIQh-82">
          <mxGeometry relative="1" as="geometry" />
        </mxCell>
        <mxCell id="CijfTk94sdnZkvBbVIQh-85" value="发送请求" style="edgeLabel;html=1;align=center;verticalAlign=middle;resizable=0;points=[];fontSize=20;fontColor=none;" vertex="1" connectable="0" parent="CijfTk94sdnZkvBbVIQh-84">
          <mxGeometry x="0.376" y="3" relative="1" as="geometry">
            <mxPoint as="offset" />
          </mxGeometry>
        </mxCell>
        <mxCell id="CijfTk94sdnZkvBbVIQh-86" value="用户" style="shape=umlActor;verticalLabelPosition=bottom;verticalAlign=top;html=1;outlineConnect=0;fontSize=20;fontColor=none;" vertex="1" parent="1">
          <mxGeometry x="257" y="2170" width="30" height="60" as="geometry" />
        </mxCell>
        <mxCell id="CijfTk94sdnZkvBbVIQh-87" style="edgeStyle=orthogonalEdgeStyle;rounded=0;orthogonalLoop=1;jettySize=auto;html=1;exitX=0.5;exitY=0.5;exitDx=0;exitDy=0;exitPerimeter=0;entryX=0;entryY=0.5;entryDx=0;entryDy=0;fontSize=20;fontColor=none;" edge="1" parent="1" source="CijfTk94sdnZkvBbVIQh-89" target="CijfTk94sdnZkvBbVIQh-83">
          <mxGeometry relative="1" as="geometry" />
        </mxCell>
        <mxCell id="CijfTk94sdnZkvBbVIQh-88" value="发送请求" style="edgeLabel;html=1;align=center;verticalAlign=middle;resizable=0;points=[];fontSize=20;fontColor=none;" vertex="1" connectable="0" parent="CijfTk94sdnZkvBbVIQh-87">
          <mxGeometry x="0.008" y="-5" relative="1" as="geometry">
            <mxPoint as="offset" />
          </mxGeometry>
        </mxCell>
        <mxCell id="CijfTk94sdnZkvBbVIQh-89" value="用户" style="shape=umlActor;verticalLabelPosition=bottom;verticalAlign=top;html=1;outlineConnect=0;fontSize=20;fontColor=none;" vertex="1" parent="1">
          <mxGeometry x="257" y="2300" width="30" height="60" as="geometry" />
        </mxCell>
        <mxCell id="CijfTk94sdnZkvBbVIQh-90" value="&lt;font color=&quot;#ff6666&quot; style=&quot;font-size: 26px&quot;&gt;多线程并发处理请求&lt;/font&gt;" style="text;html=1;resizable=0;autosize=1;align=center;verticalAlign=middle;points=[];fillColor=none;strokeColor=none;rounded=0;fontSize=20;fontColor=none;" vertex="1" parent="1">
          <mxGeometry x="147" y="2260" width="250" height="30" as="geometry" />
        </mxCell>
        <mxCell id="CijfTk94sdnZkvBbVIQh-91" value="&lt;font style=&quot;font-size: 15px&quot;&gt;数据库&lt;br&gt;连接池&lt;/font&gt;" style="text;html=1;resizable=0;autosize=1;align=center;verticalAlign=middle;points=[];fillColor=none;strokeColor=none;rounded=0;fontSize=20;fontColor=none;" vertex="1" parent="1">
          <mxGeometry x="607" y="2225" width="60" height="60" as="geometry" />
        </mxCell>
        <mxCell id="CijfTk94sdnZkvBbVIQh-94" value="连接" style="rounded=1;whiteSpace=wrap;html=1;fontSize=20;fontColor=none;" vertex="1" parent="1">
          <mxGeometry x="611" y="2330" width="56" height="30" as="geometry" />
        </mxCell>
        <mxCell id="CijfTk94sdnZkvBbVIQh-97" value="连接" style="rounded=1;whiteSpace=wrap;html=1;fontSize=20;fontColor=none;" vertex="1" parent="1">
          <mxGeometry x="611" y="2285" width="56" height="30" as="geometry" />
        </mxCell>
        <mxCell id="CijfTk94sdnZkvBbVIQh-98" value="&lt;div&gt;很多系统要与MySQL数据库建立很多个连接，&lt;span&gt;那么&lt;/span&gt;&lt;span&gt;MySQL也必然要维护与系统之间的多个连接，&lt;/span&gt;&lt;/div&gt;&lt;div style=&quot;text-align: left&quot;&gt;&lt;span&gt;所以MySQL架构体系中的第一个环节，就是连接池。&lt;/span&gt;&lt;/div&gt;" style="text;html=1;resizable=0;autosize=1;align=center;verticalAlign=middle;points=[];fillColor=none;strokeColor=none;rounded=0;fontSize=20;fontColor=none;" vertex="1" parent="1">
          <mxGeometry x="147" y="2020" width="870" height="50" as="geometry" />
        </mxCell>
        <mxCell id="CijfTk94sdnZkvBbVIQh-99" value="" style="rounded=1;whiteSpace=wrap;html=1;fillColor=#dae8fc;strokeColor=#6c8ebf;" vertex="1" parent="1">
          <mxGeometry x="899" y="2220" width="120" height="155" as="geometry" />
        </mxCell>
        <mxCell id="CijfTk94sdnZkvBbVIQh-100" value="&lt;font style=&quot;font-size: 15px&quot;&gt;数据库&lt;br&gt;连接池&lt;/font&gt;" style="text;html=1;resizable=0;autosize=1;align=center;verticalAlign=middle;points=[];fillColor=none;strokeColor=none;rounded=0;fontSize=20;fontColor=none;" vertex="1" parent="1">
          <mxGeometry x="927" y="2225" width="60" height="60" as="geometry" />
        </mxCell>
        <mxCell id="CijfTk94sdnZkvBbVIQh-101" value="连接" style="rounded=1;whiteSpace=wrap;html=1;fontSize=20;fontColor=none;" vertex="1" parent="1">
          <mxGeometry x="927" y="2285" width="56" height="30" as="geometry" />
        </mxCell>
        <mxCell id="CijfTk94sdnZkvBbVIQh-102" value="连接" style="rounded=1;whiteSpace=wrap;html=1;fontSize=20;fontColor=none;" vertex="1" parent="1">
          <mxGeometry x="929" y="2330" width="56" height="30" as="geometry" />
        </mxCell>
        <mxCell id="CijfTk94sdnZkvBbVIQh-103" style="edgeStyle=orthogonalEdgeStyle;rounded=0;orthogonalLoop=1;jettySize=auto;html=1;exitX=1;exitY=0.5;exitDx=0;exitDy=0;entryX=0;entryY=0.5;entryDx=0;entryDy=0;fontSize=20;fontColor=none;" edge="1" parent="1" source="CijfTk94sdnZkvBbVIQh-97" target="CijfTk94sdnZkvBbVIQh-101">
          <mxGeometry relative="1" as="geometry" />
        </mxCell>
        <mxCell id="CijfTk94sdnZkvBbVIQh-104" style="edgeStyle=orthogonalEdgeStyle;rounded=0;orthogonalLoop=1;jettySize=auto;html=1;exitX=1;exitY=0.5;exitDx=0;exitDy=0;entryX=0;entryY=0.5;entryDx=0;entryDy=0;fontSize=20;fontColor=none;" edge="1" parent="1" source="CijfTk94sdnZkvBbVIQh-94" target="CijfTk94sdnZkvBbVIQh-102">
          <mxGeometry relative="1" as="geometry" />
        </mxCell>
        <mxCell id="CijfTk94sdnZkvBbVIQh-105" value="&lt;div&gt;上MySQL中的连接池就是维护了与系统之间的多个数据库连接。除此之外，你的系统每次跟MySQL建立连接的&lt;/div&gt;&lt;div&gt;时候，还会根据你传递过来的账号和密码，进行账号密码的验证，库表权限的验证。&lt;/div&gt;" style="text;html=1;resizable=0;autosize=1;align=left;verticalAlign=middle;points=[];fillColor=none;strokeColor=none;rounded=0;fontSize=20;fontColor=none;" vertex="1" parent="1">
          <mxGeometry x="147" y="2510" width="990" height="50" as="geometry" />
        </mxCell>
      </root>
    </mxGraphModel>
  </diagram>
</mxfile>
